<?xml version="1.0"?>
<svg xmlns:rdf="http://www.w3.org/1999/02/22-rdf-syntax-ns#" xmlns="http://www.w3.org/2000/svg" xmlns:cc="http://creativecommons.org/ns#" xmlns:dc="http://purl.org/dc/elements/1.1/" xmlns:svg="http://www.w3.org/2000/svg" id="svg8776" viewBox="0 0 302.32 236.04" version="1.1">
  <title id="title8826">television</title>
  <g id="layer1" stroke="#000" transform="translate(-237.41 -545.77)">
    <path id="path5627" stroke-linejoin="round" d="m307.22 762.57c-7.6031 3.6558-7.1512 12.267-7.0841 17.41 67.626 1.4094 112.28 0.9362 178.32-0.83361-0.0327-7.1654-0.89025-15.727-7.5008-17.41z" stroke-linecap="round" stroke-width="2" fill="#fff"/>
    <path id="path5621" stroke-width="2" fill="#fff" d="m375.8 736.39-0.46976 31.83c13.359 6.1343 25.149 4.3034 32.413 0.00002l-0.46974-33.009z"/>
    <path id="path7903" stroke-linejoin="round" d="m238.25 550.99c-0.0694-2.1004 1.1498-4.6847 5.2661-4.2764 97.015-1.0987 193.71-0.90131 290.05 0.69023 4.2176 0.0431 4.2362 0.78598 4.4702 4.0473l1.388 182.51c0.2247 2.0778-0.0783 3.4476-2.6364 3.7504-100.89 10.828-191.99 13.572-295.39 4.103-3.9666-0.32082-3.7413-2.7952-3.7283-3.7516z" stroke-linecap="round" stroke-width=".5" fill="none"/>
    <path id="path5615" stroke-linejoin="round" d="m242.22 550.13-0.7631 171.94 0.33871 15.06c94.363 9.614 200.41 6.8065 294.77-3.0105l-2.02-182.81c-97.297-1.7423-199.02-0.33159-292.34-1.1789z" stroke-linecap="round" stroke-width="2" fill="#fff"/>
    <path id="path5617" stroke-linejoin="round" stroke-linecap="round" fill="#fff" d="m254.14 562.66v145.93l268.36 0.39336-1.2501-146.7z"/>
    <path id="path5619" fill="none" d="m369.73 716.35 0.58932 10.61 43.02 0.00002v-10.61h-30.474l-5.834 0.2084z"/>
    <path id="path5648" stroke-linejoin="round" d="m443.4 483.11c0 1.8108-1.468 3.2788-3.2788 3.2788s-3.2788-1.468-3.2788-3.2788 1.468-3.2788 3.2788-3.2788 3.2788 1.468 3.2788 3.2788z" transform="matrix(1.1683 0 0 1.1685 3.4659 154.47)" stroke-linecap="round" stroke-width=".85586" fill="#fff"/>
    <path id="path5650" stroke-linejoin="round" d="m443.4 483.11c0 1.8108-1.468 3.2788-3.2788 3.2788s-3.2788-1.468-3.2788-3.2788 1.468-3.2788 3.2788-3.2788 3.2788 1.468 3.2788 3.2788z" transform="matrix(.80881 0 0 .80899 151.07 328.77)" stroke-linecap="round" stroke-width="1.2362" fill="#fff"/>
    <path id="path8737" stroke-linejoin="round" d="m443.4 483.11c0 1.8108-1.468 3.2788-3.2788 3.2788s-3.2788-1.468-3.2788-3.2788 1.468-3.2788 3.2788-3.2788 3.2788 1.468 3.2788 3.2788z" transform="matrix(.80881 0 0 .80899 141.79 328.77)" stroke-linecap="round" stroke-width="1.2362" fill="#fff"/>
  </g>
  <metadata>
    <rdf:RDF>
      <cc:Work>
        <dc:format>image/svg+xml</dc:format>
        <dc:type rdf:resource="http://purl.org/dc/dcmitype/StillImage"/>
        <cc:license rdf:resource="http://creativecommons.org/licenses/publicdomain/"/>
        <dc:publisher>
          <cc:Agent rdf:about="http://openclipart.org/">
            <dc:title>Openclipart</dc:title>
          </cc:Agent>
        </dc:publisher>
        <dc:title>television</dc:title>
        <dc:date>2011-05-27T00:20:19</dc:date>
        <dc:description>clip art, clipart, flat, hdtv, lcd, line_art, plasma, screen, television, tv, </dc:description>
        <dc:source>http://openclipart.org/detail/140605/television-by-lmproulx</dc:source>
        <dc:creator>
          <cc:Agent>
            <dc:title>lmproulx</dc:title>
          </cc:Agent>
        </dc:creator>
        <dc:subject>
          <rdf:Bag>
            <rdf:li>clip art</rdf:li>
            <rdf:li>clipart</rdf:li>
            <rdf:li>flat</rdf:li>
            <rdf:li>hdtv</rdf:li>
            <rdf:li>lcd</rdf:li>
            <rdf:li>line_art</rdf:li>
            <rdf:li>plasma</rdf:li>
            <rdf:li>screen</rdf:li>
            <rdf:li>television</rdf:li>
            <rdf:li>tv</rdf:li>
          </rdf:Bag>
        </dc:subject>
      </cc:Work>
      <cc:License rdf:about="http://creativecommons.org/licenses/publicdomain/">
        <cc:permits rdf:resource="http://creativecommons.org/ns#Reproduction"/>
        <cc:permits rdf:resource="http://creativecommons.org/ns#Distribution"/>
        <cc:permits rdf:resource="http://creativecommons.org/ns#DerivativeWorks"/>
      </cc:License>
    </rdf:RDF>
  </metadata>
</svg>
